<svg width="32" height="32" xmlns="http://www.w3.org/2000/svg"><g fill="none" fill-rule="evenodd"><path fill="#FFF" d="M0 0h32v32H0z"/><g fill-rule="nonzero"><path fill="#000" opacity=".81" d="M5.64 14.96v-2.2l1.88-.04v2.24h2.64V4.04H7.53L7.5 6.13H5.66l-.02-2.1h-2.5v10.93zM24.97 14.96l-.04-1.88L27 14.96h1.9v-3.52L26.95 9.5l1.96-1.85V4.04h-1.72l-2.16 2-.13-2h-3v10.92z"/><path d="M20.22 14.89a435.48 435.48 0 0 0-2.87-10.87h-2.7c-.7 2.43-1.66 6.08-2.88 10.94l8.45-.07ZM10.88 27.86C9.98 24.24 9.04 20.64 8 17H5.3c-1.06 3.64-1.98 7.3-2.88 10.93l8.45-.07Z" fill="#8E2121" opacity=".85"/><path fill="#000" opacity=".81" d="M19.49 27.93V17.02h-1.94l-.45 3.14-2.06-3.14h-2.55v10.9h1.97l.63-2.83 2.06 2.84z"/><path d="M29.56 27.86c-.9-3.62-1.84-7.22-2.87-10.86h-2.7c-1.06 3.64-1.97 7.3-2.87 10.93l8.44-.07Z" fill="#8E2121" opacity=".85"/></g></g></svg>